<?xml version="1.0" encoding="UTF-8" standalone="no"?>
<!-- Created with Inkscape (http://www.inkscape.org/) -->

<svg
   xmlns:osb="http://www.openswatchbook.org/uri/2009/osb"
   xmlns:dc="http://purl.org/dc/elements/1.1/"
   xmlns:cc="http://creativecommons.org/ns#"
   xmlns:rdf="http://www.w3.org/1999/02/22-rdf-syntax-ns#"
   xmlns:svg="http://www.w3.org/2000/svg"
   xmlns="http://www.w3.org/2000/svg"
   xmlns:sodipodi="http://sodipodi.sourceforge.net/DTD/sodipodi-0.dtd"
   xmlns:inkscape="http://www.inkscape.org/namespaces/inkscape"
   width="160"
   height="140"
   viewBox="0 0 160.00001 140"
   id="svg2"
   version="1.1"
   inkscape:version="0.91 r13725"
   sodipodi:docname="click me.svg">
  <defs
     id="defs4">
    <linearGradient
       osb:paint="solid"
       id="linearGradient4976">
      <stop
         id="stop4978"
         offset="0"
         style="stop-color:#d65cc3;stop-opacity:1;" />
    </linearGradient>
    <linearGradient
       osb:paint="solid"
       id="linearGradient4346">
      <stop
         id="stop4348"
         offset="0"
         style="stop-color:#edd9ef;stop-opacity:1;" />
    </linearGradient>
  </defs>
  <sodipodi:namedview
     id="base"
     pagecolor="#ffffff"
     bordercolor="#666666"
     borderopacity="1.0"
     inkscape:pageopacity="0.0"
     inkscape:pageshadow="2"
     inkscape:zoom="2.8"
     inkscape:cx="85.612302"
     inkscape:cy="45.027257"
     inkscape:document-units="px"
     inkscape:current-layer="layer1"
     showgrid="false"
     units="px"
     fit-margin-top="0"
     fit-margin-left="0"
     fit-margin-right="0"
     fit-margin-bottom="0"
     inkscape:window-width="1920"
     inkscape:window-height="1057"
     inkscape:window-x="-8"
     inkscape:window-y="-8"
     inkscape:window-maximized="1" />
  <metadata
     id="metadata7">
    <rdf:RDF>
      <cc:Work
         rdf:about="">
        <dc:format>image/svg+xml</dc:format>
        <dc:type
           rdf:resource="http://purl.org/dc/dcmitype/StillImage" />
        <dc:title></dc:title>
      </cc:Work>
    </rdf:RDF>
  </metadata>
  <g
     inkscape:label="Layer 1"
     inkscape:groupmode="layer"
     id="layer1"
     transform="translate(-290.625,-233.88185)">
    <rect
       style="fill:#ffffff;fill-opacity:1;fill-rule:nonzero;stroke:none;stroke-width:0.025;stroke-miterlimit:4;stroke-dasharray:none;stroke-opacity:0.89325843"
       id="rect4152"
       width="259.51151"
       height="37.931034"
       x="-441.05734"
       y="215.30888" />
    <g
       transform="matrix(0.34183134,0,0,0.32038355,318.98274,338.42045)"
       id="g4158">
      <g
         transform="scale(0.096,0.096)"
         id="g4160">
        <g
           id="g4162">
          <path
             style="fill:#000000;fill-opacity:1;fill-rule:evenodd;stroke:none;stroke-width:1;stroke-linecap:butt;stroke-linejoin:miter;stroke-miterlimit:4;stroke-opacity:0"
             inkscape:connector-curvature="0"
             stroke-miterlimit="4"
             path="M346 340Q342 341 335 341Q280 341 193 229T106 58Q106 42 121 32T165 22Q223 22 295 68T436 174T508 232Q481 199 455 167Q386 101 294 47T122 -7Q92 -7 65 1T23 28T8 73Q8 156 120 254T339 352Q368 352 397 341T427 300Q427 273 402 242T355 198T328 184Q329 198 331 212Q361 294 361 314Q361 335 346 340Z"
             d="m 346,340 q -4,1 -11,1 -55,0 -142,-112 -87,-112 -87,-171 0,-16 15,-26 15,-10 44,-10 58,0 130,46 72,46 141,106 69,60 72,58 Q 481,199 455,167 386,101 294,47 202,-7 122,-7 92,-7 65,1 38,9 23,28 8,47 8,73 q 0,83 112,181 112,98 219,98 29,0 58,-11 29,-11 30,-41 0,-27 -25,-58 -25,-31 -47,-44 -22,-13 -27,-14 1,14 3,28 30,82 30,102 0,21 -15,26 z"
             transform="matrix(1,0,0,-1,0,735)"
             id="path4164" />
          <path
             style="fill:#000000;fill-opacity:1;fill-rule:evenodd;stroke:none;stroke-width:1;stroke-linecap:butt;stroke-linejoin:miter;stroke-miterlimit:4;stroke-opacity:0"
             inkscape:connector-curvature="0"
             stroke-miterlimit="4"
             path="M404 555Q403 551 400 545T392 523Q390 524 329 434T199 230T130 93Q130 70 150 70Q163 70 183 82T242 133T312 199T348 221Q331 198 315 176Q278 139 236 95T150 25T73 -2Q14 -2 14 62Q14 111 85 224T213 426T273 527T279 547T284 555H404Z"
             d="m 404,555 q -1,-4 -4,-10 -3,-6 -8,-22 -2,1 -63,-89 Q 268,344 199,230 130,116 130,93 q 0,-23 20,-23 13,0 33,12 20,12 59,51 39,39 70,66 31,27 36,22 Q 331,198 315,176 278,139 236,95 194,51 150,25 106,-1 73,-2 14,-2 14,62 q 0,49 71,162 71,113 128,202 57,89 60,101 3,12 6,20 3,8 5,8 l 120,0 z"
             transform="matrix(1,0,0,-1,473,735)"
             id="path4166" />
          <path
             style="fill:#000000;fill-opacity:1;fill-rule:evenodd;stroke:none;stroke-width:1;stroke-linecap:butt;stroke-linejoin:miter;stroke-miterlimit:4;stroke-opacity:0"
             inkscape:connector-curvature="0"
             stroke-miterlimit="4"
             path="M309 351Q308 348 304 338T296 318T250 256T178 162T148 94Q148 70 170 70Q183 70 203 82T244 115T309 184T358 228Q335 194 313 160Q300 145 257 98T168 24T89 -2Q27 -2 27 65Q27 113 61 170T124 258T182 320Q187 329 189 337T193 351H309ZM261 504Q267 526 283 537T318 549Q343 549 363 531T383 484Q383 472 380 458T361 432T326 421Q300 421 279 439T258 484Q258 493 261 504Z"
             d="m 309,351 q -1,-3 -5,-13 -4,-10 -8,-20 -4,-10 -46,-62 -42,-52 -72,-94 -30,-42 -30,-68 0,-24 22,-24 13,0 33,12 20,12 41,33 21,21 65,69 44,48 49,44 Q 335,194 313,160 300,145 257,98 214,51 168,24 122,-3 89,-2 27,-2 27,65 q 0,48 34,105 34,57 63,88 29,31 58,62 5,9 7,17 2,8 4,14 l 116,0 z m -48,153 q 6,22 22,33 16,11 35,12 25,0 45,-18 20,-18 20,-47 0,-12 -3,-26 -3,-14 -19,-26 -16,-12 -35,-11 -26,0 -47,18 -21,18 -21,45 0,9 3,20 z"
             transform="matrix(1,0,0,-1,770,735)"
             id="path4168" />
          <path
             style="fill:#000000;fill-opacity:1;fill-rule:evenodd;stroke:none;stroke-width:1;stroke-linecap:butt;stroke-linejoin:miter;stroke-miterlimit:4;stroke-opacity:0"
             inkscape:connector-curvature="0"
             stroke-miterlimit="4"
             path="M346 340Q342 341 335 341Q280 341 193 229T106 58Q106 42 121 32T165 22Q223 22 295 68T436 174T508 232Q481 199 455 167Q386 101 294 47T122 -7Q92 -7 65 1T23 28T8 73Q8 156 120 254T339 352Q368 352 397 341T427 300Q427 273 402 242T355 198T328 184Q329 198 331 212Q361 294 361 314Q361 335 346 340Z"
             d="m 346,340 q -4,1 -11,1 -55,0 -142,-112 -87,-112 -87,-171 0,-16 15,-26 15,-10 44,-10 58,0 130,46 72,46 141,106 69,60 72,58 Q 481,199 455,167 386,101 294,47 202,-7 122,-7 92,-7 65,1 38,9 23,28 8,47 8,73 q 0,83 112,181 112,98 219,98 29,0 58,-11 29,-11 30,-41 0,-27 -25,-58 -25,-31 -47,-44 -22,-13 -27,-14 1,14 3,28 30,82 30,102 0,21 -15,26 z"
             transform="matrix(1,0,0,-1,1058,735)"
             id="path4170" />
          <path
             style="fill:#000000;fill-opacity:1;fill-rule:evenodd;stroke:none;stroke-width:1;stroke-linecap:butt;stroke-linejoin:miter;stroke-miterlimit:4;stroke-opacity:0"
             inkscape:connector-curvature="0"
             stroke-miterlimit="4"
             path="M207 223Q285 280 330 311T405 346T447 350Q462 350 470 346T480 331Q484 309 462 294T436 285Q434 287 431 300T421 315Q393 320 337 291T232 225Q239 227 249 228T274 229Q305 229 326 221T350 198T352 174Q352 146 333 117T293 56Q293 50 299 45Q313 34 339 56T389 102T457 177T506 225Q510 221 475 179T402 89T330 21T264 0Q235 0 217 17T198 58Q198 71 211 90T245 142T266 190Q266 211 233 211Q198 211 164 167T94 70T57 11T55 0H-70Q-52 23 -31 43T52 158T150 305T242 439T302 529L310 549L408 554Q409 545 410 536Q405 516 360 447T262 300T207 223Z"
             d="m 207,223 q 78,57 123,88 45,31 75,35 30,4 42,4 15,0 23,-4 8,-4 10,-15 4,-22 -18,-37 -22,-15 -26,-9 -2,2 -5,15 -3,13 -10,15 -28,5 -84,-24 -56,-29 -105,-66 7,2 17,3 10,1 25,1 31,0 52,-8 21,-8 24,-23 3,-15 2,-24 0,-28 -19,-57 -19,-29 -40,-61 0,-6 6,-11 14,-11 40,11 26,22 50,46 24,24 68,75 44,51 49,48 4,-4 -31,-46 Q 440,137 402,89 364,41 330,21 296,1 264,0 q -29,0 -47,17 -18,17 -19,41 0,13 13,32 13,19 34,52 21,33 21,48 0,21 -33,21 -35,0 -69,-44 Q 130,123 94,70 58,17 57,11 56,5 55,0 L -70,0 q 18,23 39,43 21,20 83,115 62,95 98,147 36,52 92,134 56,82 60,90 l 8,20 98,5 q 1,-9 2,-18 -5,-20 -50,-89 -45,-69 -98,-147 -53,-78 -55,-77 z"
             transform="matrix(1,0,0,-1,1531,735)"
             id="path4172" />
          <path
             style="fill:#000000;fill-opacity:1;fill-rule:evenodd;stroke:none;stroke-width:1;stroke-linecap:butt;stroke-linejoin:miter;stroke-miterlimit:4;stroke-opacity:0"
             inkscape:connector-curvature="0"
             stroke-miterlimit="4"
             path="M290 311Q320 332 346 342T391 352Q404 352 416 348T437 341T453 324T465 298Q507 322 544 336T603 351Q658 351 667 298Q674 259 604 165T534 55Q534 48 537 45T547 42Q560 42 581 59T637 113T715 186T763 218Q736 190 709 162Q669 124 637 83T566 20T491 -3Q429 -3 429 55Q429 78 442 107T489 175T541 246T559 296Q559 311 545 311Q524 311 486 276T404 172T333 60T294 0H166Q176 8 201 43T284 171T343 286Q343 308 326 308Q307 308 274 276T180 147T106 29T87 0H-39Q-21 25 -8 45T63 151T140 267T173 329L180 349H294V332Q294 328 293 323T290 311Z"
             d="m 290,311 q 30,21 56,31 26,10 45,10 13,0 25,-4 12,-4 21,-7 9,-3 16,-17 7,-14 12,-26 42,24 79,38 37,14 59,15 55,0 64,-53 7,-39 -63,-133 -70,-94 -70,-110 0,-7 3,-10 3,-3 10,-3 13,0 34,17 21,17 56,54 35,37 78,73 43,36 48,32 Q 736,190 709,162 669,124 637,83 605,42 566,20 527,-2 491,-3 q -62,0 -62,58 0,23 13,52 13,29 47,68 34,39 52,71 18,32 18,50 0,15 -14,15 -21,0 -59,-35 Q 448,241 404,172 360,103 333,60 306,17 294,0 L 166,0 q 10,8 35,43 25,35 83,128 58,93 59,115 0,22 -17,22 -19,0 -52,-32 Q 241,244 180,147 119,50 106,29 93,8 87,0 L -39,0 q 18,25 31,45 13,20 71,106 58,86 77,116 19,30 33,62 l 7,20 114,0 0,-17 q 0,-4 -1,-9 -1,-5 -3,-12 z"
             transform="matrix(1,0,0,-1,2357,735)"
             id="path4174" />
          <path
             style="fill:#000000;fill-opacity:1;fill-rule:evenodd;stroke:none;stroke-width:1;stroke-linecap:butt;stroke-linejoin:miter;stroke-miterlimit:4;stroke-opacity:0"
             inkscape:connector-curvature="0"
             stroke-miterlimit="4"
             path="M338 188Q306 169 259 155T183 140Q164 140 164 148Q164 154 195 157T263 182T334 243T367 311Q367 333 355 337T335 341Q280 341 193 229T106 58Q106 42 121 32T165 22Q223 22 295 68T436 174T508 232Q481 199 455 167Q386 101 294 47T122 -7Q92 -7 65 1T23 28T8 73Q8 156 120 254T339 352Q368 352 397 341T427 300Q427 273 402 242T338 188Z"
             d="m 338,188 q -32,-19 -79,-33 -47,-14 -76,-15 -19,0 -19,8 0,6 31,9 31,3 68,25 37,22 71,61 34,39 33,68 0,22 -12,26 -12,4 -20,4 -55,0 -142,-112 -87,-112 -87,-171 0,-16 15,-26 15,-10 44,-10 58,0 130,46 72,46 141,106 69,60 72,58 Q 481,199 455,167 386,101 294,47 202,-7 122,-7 92,-7 65,1 38,9 23,28 8,47 8,73 q 0,83 112,181 112,98 219,98 29,0 58,-11 29,-11 30,-41 0,-27 -25,-58 -25,-31 -64,-54 z"
             transform="matrix(1,0,0,-1,3197,735)"
             id="path4176" />
        </g>
      </g>
    </g>
    <path
       style="fill:#000000"
       d="m 372.91235,335.31092 c -0.0911,-0.37104 5.63361,-4.60983 12.72167,-9.41954 7.08803,-4.80972 13.01304,-8.23315 13.16666,-7.60764 0.47991,1.95401 -7.51909,10.45134 -12.39377,13.16591 -4.77148,2.65709 -13.19813,5.06824 -13.49456,3.86127 z m -12.85447,-4.77944 c -3.10474,-3.10804 -6.01614,-6.03063 -6.4698,-6.4946 -0.45365,-0.464 6.55579,-5.84474 15.57655,-11.9572 15.55793,-10.54205 22.70494,-13.3726 21.6242,-8.56422 -0.26702,1.18805 0.80488,2.24809 2.38201,2.35563 1.57719,0.10758 2.54597,0.88221 2.15285,1.72145 -0.39308,0.83924 0.19581,1.73337 1.30858,1.98698 5.90401,1.34547 2.55365,5.62085 -12.15844,15.51525 -8.43949,5.67587 -16.11549,10.49253 -17.05777,10.70371 -0.94231,0.21119 -4.25349,-2.15896 -7.35818,-5.267 z m 17.83699,-5.84726 c 5.98193,-4.10326 7.99805,-7.58703 3.85319,-6.65808 -3.24071,0.7263 -14.60493,9.09883 -14.25944,10.50553 0.50113,2.04045 3.3677,0.98062 10.40625,-3.84745 z m -1.68727,-7.7101 c 8.17776,-5.55571 10.78376,-8.06996 9.14853,-8.82638 -1.63522,-0.75645 -5.3765,1.11694 -13.13406,6.57664 -10.10013,7.1084 -14.05536,11.49886 -9.4238,10.46084 1.08583,-0.24336 7.12003,-3.93837 13.40933,-8.2111 z m -62.22112,18.18009 c -0.77742,-0.35964 -6.80744,-22.61639 -13.40002,-49.45946 -10.2677,-41.80707 -11.63625,-49.0026 -9.54369,-50.17961 1.50307,-0.84546 12.48499,1.92056 28.54713,7.19017 14.35733,4.71035 39.60223,12.89055 56.09975,18.17823 16.49751,5.28767 30.6863,10.15773 31.53065,10.82234 2.75128,2.16552 -0.88634,4.41558 -16.84298,10.41827 l -15.7,5.90614 4.74744,4.47607 c 2.61109,2.46185 4.90435,5.11493 5.09612,5.89573 0.19176,0.7808 -5.53104,5.40938 -12.71729,10.28573 -21.29159,14.44776 -20.08633,14.08184 -26.47456,8.03795 l -5.53092,-5.23276 -10.28497,11.66117 c -10.00761,11.34672 -12.60293,13.35255 -15.52666,12.00003 z m 25.71807,-32.45775 c 1.44857,-0.32465 4.86634,1.85781 7.59506,4.84991 5.39403,5.91474 6.49131,6.12369 10.89915,2.0755 2.86705,-2.63307 2.80594,-2.81617 -2.86415,-8.58194 -5.29078,-5.38003 -6.58706,-5.87213 -14.93325,-5.66871 -5.99583,0.14612 -11.02844,-0.85037 -14.63092,-2.89706 -6.12326,-3.47881 -6.68608,-4.48967 -4.97338,-8.93231 1.41521,-3.671 6.00969,-4.97271 11.4629,-3.24766 5.27736,1.66941 6.77127,1.238 6.03891,-1.74394 -1.45527,-5.92546 6.84513,-9.68423 12.58875,-5.70068 4.34365,3.01262 5.93115,8.86148 3.94032,14.51754 -1.33759,3.80011 -0.85026,4.96107 4.44129,10.58052 6.4369,6.83575 7.38535,7.06536 11.86047,2.87131 2.91798,-2.73469 2.87582,-2.85646 -2.62725,-7.58977 -7.34293,-6.31581 -5.79731,-8.18982 11.83276,-14.34679 7.43793,-2.59753 12.75361,-5.03986 11.8126,-5.42741 -4.88316,-2.01098 -90.41445,-29.22565 -91.25764,-29.03668 -0.54435,0.122 3.37362,17.98802 8.70659,39.70227 l 9.69629,39.48047 8.88887,-10.15714 c 4.88888,-5.58642 10.07405,-10.42278 11.52263,-10.74743 z m -3.6243,-16.04844 c -8.27967,-3.42555 -11.7123,-3.60196 -10.96608,-0.56359 0.57927,2.35865 6.46895,4.77703 12.58395,5.16712 7.41827,0.47322 6.86794,-1.0927 -1.61787,-4.60353 z m 12.6658,-8.45361 c -1.10835,-1.80466 -2.80147,-3.10495 -3.76253,-2.88956 -2.01341,0.45125 0.0746,10.61293 2.40207,11.68958 2.54079,1.17535 3.53545,-5.25857 1.36046,-8.80002 z"
       id="path4311"
       inkscape:connector-curvature="0" />
  </g>
</svg>
