<?xml version="1.0" encoding="UTF-8" standalone="no"?>
<!-- Created with Inkscape (http://www.inkscape.org/) -->

<svg
   xmlns:dc="http://purl.org/dc/elements/1.1/"
   xmlns:cc="http://creativecommons.org/ns#"
   xmlns:rdf="http://www.w3.org/1999/02/22-rdf-syntax-ns#"
   xmlns:svg="http://www.w3.org/2000/svg"
   xmlns="http://www.w3.org/2000/svg"
   xmlns:sodipodi="http://sodipodi.sourceforge.net/DTD/sodipodi-0.dtd"
   xmlns:inkscape="http://www.inkscape.org/namespaces/inkscape"
   width="570"
   height="520"
   viewBox="0 0 570.00001 520"
   id="svg4716"
   version="1.1"
   inkscape:version="0.91 r13725"
   sodipodi:docname="pg.svg">
  <defs
     id="defs4718" />
  <sodipodi:namedview
     id="base"
     pagecolor="#ffffff"
     bordercolor="#666666"
     borderopacity="1.0"
     inkscape:pageopacity="0.0"
     inkscape:pageshadow="2"
     inkscape:zoom="1.4"
     inkscape:cx="299.9196"
     inkscape:cy="228.61075"
     inkscape:document-units="px"
     inkscape:current-layer="layer1"
     showgrid="false"
     showguides="true"
     inkscape:guide-bbox="true"
     borderlayer="false"
     units="px"
     inkscape:window-width="1920"
     inkscape:window-height="1057"
     inkscape:window-x="-8"
     inkscape:window-y="-8"
     inkscape:window-maximized="1" />
  <metadata
     id="metadata4721">
    <rdf:RDF>
      <cc:Work
         rdf:about="">
        <dc:format>image/svg+xml</dc:format>
        <dc:type
           rdf:resource="http://purl.org/dc/dcmitype/StillImage" />
        <dc:title></dc:title>
      </cc:Work>
    </rdf:RDF>
  </metadata>
  <g
     inkscape:label="Layer 1"
     inkscape:groupmode="layer"
     id="layer1"
     transform="translate(0,-532.36219)">
    <path
       id="path4501"
       d="m 65.708522,984.16061 q 0,1.58307 -0.706632,2.95027 -0.706632,1.36719 -1.805838,2.51852 -1.099205,1.15132 -2.669498,1.65503 -1.570294,0.5037 -3.297617,0.64762 l -16.174022,0 q 2.041382,1.00741 3.611675,2.51852 1.570294,1.51112 2.748014,3.45398 1.17772,1.94286 1.805837,3.95765 0.628117,2.0148 0.628117,4.2455 l 0,7.9874 q 0,3.382 -1.334749,6.2603 -1.334749,2.8783 -3.768704,5.109 -2.433955,2.2307 -5.653056,3.382 -3.219102,1.1513 -6.830777,1.2952 -3.611674,0 -6.830776,-1.2232 -3.219101,-1.2233 -5.574542,-3.454 -2.35544,-2.2307 -3.847218,-5.0371 -1.491779,-2.8063 -1.413264,-6.3322 l 0,-22.16305 -8.6366141,0 0,-7.77144 8.6366141,0 0,-1.87091 q 0,-3.31006 1.334749,-6.62012 1.334749,-3.31006 3.768704,-5.90054 2.433955,-2.59048 5.574542,-4.24551 3.140587,-1.65503 6.909291,-1.65503 l 8.479584,0 0,7.77145 q -0.785147,0 -1.648808,-0.072 -0.863661,-0.072 -1.962867,-0.072 -1.020691,0 -2.041381,0.14392 -1.020691,0.14391 -1.805838,0.5037 -0.785146,0.35979 -1.256234,1.07937 -0.471088,0.71958 -0.471088,1.8709 l 0,9.06669 34.232396,0 z m -26.459444,17.98949 q 0,-1.4392 -1.17772,-2.59052 -1.17772,-1.15133 -2.748014,-1.22329 l -3.847218,0 0,17.84551 q 0,1.4392 1.099205,2.4466 1.099205,1.0074 2.748013,1.0794 1.570294,0 2.748014,-1.0074 1.17772,-1.0075 1.17772,-2.5186 l 0,-14.0317 z"
       path="M788 441Q788 419 779 400T756 365T722 342T680 333H474Q500 319 520 298T555 250T578 195T586 136V25Q586 -22 569 -62T521 -133T449 -180T362 -198Q316 -198 275 -181T204 -133T155 -63T137 25V333H27V441H137V467Q137 513 154 559T202 641T273 700T361 723H469V615Q459 615 448 616T423 617Q410 617 397 615T374 608T358 593T352 567V441H788ZM451 191Q451 211 436 227T401 244H352V-4Q352 -24 366 -38T401 -53Q421 -53 436 -39T451 -4V191Z"
       stroke-miterlimit="4"
       inkscape:connector-curvature="0"
       style="fill:#ff8b00;fill-opacity:1;fill-rule:evenodd;stroke:none;stroke-width:1;stroke-linecap:butt;stroke-linejoin:miter;stroke-miterlimit:4;stroke-opacity:0" />
    <path
       id="path4503"
       d="m 94.052318,1008.1945 q 0,1.5831 -0.706632,2.9503 -0.706632,1.3672 -1.805838,2.4466 -1.099205,1.0793 -2.669498,1.655 -1.570294,0.5756 -3.297617,0.6476 l -13.661552,0 q -1.962867,0 -3.69019,-0.6476 -1.727322,-0.6476 -2.983557,-1.8709 -1.256235,-1.2233 -2.041382,-2.8064 -0.785146,-1.583 -0.785146,-3.382 l 0,-22.88258 16.880654,0 0,23.88998 14.760758,0 z M 80.46928,973.72672 q 0,1.51112 -0.942176,2.51853 -0.942176,1.00741 -2.276926,1.79894 -1.334749,0.79154 -2.983557,1.00741 -1.648808,0.21587 -2.905043,0.35979 -1.334749,0 -2.905043,-0.28783 -1.570293,-0.28783 -2.905042,-1.07937 -1.33475,-0.79153 -2.276926,-1.72699 -0.942176,-0.93545 -0.942176,-2.59048 0,-1.51111 0.863661,-2.59048 0.863662,-1.07936 2.276926,-1.72699 1.413264,-0.64762 2.905043,-1.0074 1.491778,-0.35979 2.983557,-0.35979 1.33475,0 2.905043,0.28783 1.570293,0.28783 2.983557,1.00741 1.413264,0.71958 2.276926,1.79894 0.863661,1.07937 0.942176,2.59048 z"
       path="M431 107Q431 85 422 66T399 32T365 9T323 0H149Q124 0 102 9T64 35T38 74T28 121V439H243V107H431ZM258 586Q258 565 246 551T217 526T179 512T142 507Q125 507 105 511T68 526T39 550T27 586Q27 607 38 622T67 646T104 660T142 665Q159 665 179 661T217 647T246 622T258 586Z"
       stroke-miterlimit="4"
       inkscape:connector-curvature="0"
       style="fill:#ff8b00;fill-opacity:1;fill-rule:evenodd;stroke:none;stroke-width:1;stroke-linecap:butt;stroke-linejoin:miter;stroke-miterlimit:4;stroke-opacity:0" />
    <path
       id="path4505"
       d="m 128.44174,1008.1945 q 0,1.5831 -0.62811,2.9503 -0.62812,1.3672 -1.88436,2.4466 -1.25623,1.0793 -2.66949,1.655 -1.41327,0.5756 -3.29762,0.6476 l -19.7857,0 q -1.962865,0 -3.690187,-0.6476 -1.727323,-0.6476 -2.983558,-1.8709 -1.256235,-1.2233 -2.041381,-2.8064 -0.785147,-1.583 -0.785147,-3.382 l 0,-39.07309 16.880653,0 0,40.08049 20.8849,0 0,0 z"
       path="M508 107Q508 85 500 66T476 32T442 9T400 0H148Q123 0 101 9T63 35T37 74T27 121V664H242V107H508V107Z"
       stroke-miterlimit="4"
       inkscape:connector-curvature="0"
       style="fill:#ff8b00;fill-opacity:1;fill-rule:evenodd;stroke:none;stroke-width:1;stroke-linecap:butt;stroke-linejoin:miter;stroke-miterlimit:4;stroke-opacity:0" />
    <path
       id="path4507"
       d="m 210.25403,1008.1945 q 0,1.5831 -0.62811,2.9503 -0.62812,1.3672 -1.80584,2.4466 -1.17772,1.0793 -2.6695,1.655 -1.49178,0.5756 -3.29762,0.6476 l -23.39737,0 0,-17.19792 q 0,-3.2381 -1.41326,-4.96509 -1.41327,-1.72698 -4.00425,-1.79894 -2.27693,0 -5.10345,1.51111 0.31405,1.00741 0.47108,1.94286 0.15703,0.93546 0.23555,2.08678 l 0,18.4212 -16.72363,0 0,-17.19792 q 0,-3.02222 -1.33475,-4.89313 -1.33475,-1.8709 -3.92573,-1.8709 -1.80584,0 -4.16128,1.07937 l 0,22.88258 -17.43025,0 0,-31.66144 17.43025,0 0,0.71958 q 4.00425,-1.00741 7.92998,-1.00741 3.29762,0 6.43821,0.79154 3.14058,0.79153 5.81008,2.51852 2.74802,-1.43915 6.28118,-2.37461 3.53316,-0.93545 6.83077,-0.93545 3.37613,0 6.83078,0.71958 3.45464,0.71958 6.28117,2.37461 2.82653,1.65503 4.55385,4.24551 1.72733,2.59048 1.80584,6.18837 l 0,10.7217 14.9963,0 0,0 z"
       path="M1112 107Q1112 85 1104 66T1081 32T1047 9T1005 0H707V239Q707 284 689 308T638 333Q609 333 573 312Q577 298 579 285T582 256V0H369V239Q369 281 352 307T302 333Q279 333 249 318V0H27V440H249V430Q300 444 350 444Q392 444 432 433T506 398Q541 418 586 431T673 444Q716 444 760 434T840 401T898 342T921 256V107H1112V107Z"
       stroke-miterlimit="4"
       inkscape:connector-curvature="0"
       style="fill:#ff8b00;fill-opacity:1;fill-rule:evenodd;stroke:none;stroke-width:1;stroke-linecap:butt;stroke-linejoin:miter;stroke-miterlimit:4;stroke-opacity:0" />
    <path
       id="path4509"
       d="m 285.70663,1008.1945 q 0,1.5831 -0.62812,2.9503 -0.62812,1.3672 -1.80584,2.4466 -1.17772,1.0793 -2.6695,1.655 -1.49177,0.5756 -3.29761,0.6476 l -16.33105,0 q -1.96287,0 -3.69019,-0.6476 -1.72733,-0.6476 -2.98356,-1.8709 -1.25623,-1.2233 -2.04138,-2.8064 -0.78515,-1.583 -0.78515,-3.382 l 0,-15.25505 -10.36393,0 0,15.25505 q 0,1.799 -0.70664,3.382 -0.70663,1.5831 -2.04138,2.7344 -1.33475,1.1513 -2.98356,1.8709 -1.6488,0.7196 -3.69018,0.7196 l -7.38038,0 0,-7.6995 7.38038,0 q 0.39257,0 0.70663,-0.2878 0.31406,-0.2878 0.31406,-0.7196 l 0,-15.25505 -3.76871,0 0,-7.69949 39.41437,0 0,23.96194 17.35174,0 0,0 z"
       path="M809 107Q809 85 801 66T778 32T744 9T702 0H494Q469 0 447 9T409 35T383 74T373 121V333H241V121Q241 96 232 74T206 36T168 10T121 0H27V107H121Q126 107 130 111T134 121V333H86V440H588V107H809V107Z"
       stroke-miterlimit="4"
       inkscape:connector-curvature="0"
       style="fill:#ffffff;fill-opacity:1;fill-rule:evenodd;stroke:none;stroke-width:1;stroke-linecap:butt;stroke-linejoin:miter;stroke-miterlimit:4;stroke-opacity:0" />
    <path
       id="path4511"
       d="m 339.88175,1008.1945 q 0,1.5831 -0.70663,2.9503 -0.70663,1.3672 -1.80584,2.4466 -1.09921,1.0793 -2.6695,1.655 -1.57029,0.5756 -3.29762,0.6476 l -24.41806,0 q -2.27692,0 -4.55385,-0.1439 -2.27692,-0.1439 -4.63236,-0.6476 -2.90505,-0.5037 -5.65306,-1.8709 -2.74801,-1.3672 -4.94642,-3.3101 -2.19842,-1.9429 -3.53316,-4.4614 -1.33475,-2.5185 -1.33475,-5.3968 0,-3.88574 1.80583,-6.83601 1.80584,-2.95027 4.94643,-4.96509 3.14058,-2.01482 6.90929,-3.02223 3.7687,-1.00741 7.92998,-1.00741 3.92573,0 7.61592,0.93546 3.69019,0.93545 6.67375,2.95027 2.98356,2.01481 4.63237,4.96508 1.6488,2.95027 1.80583,6.97993 l 0,4.6053 -24.18252,0 q 0.86367,1.8709 2.59099,2.6624 1.72732,0.7916 3.84722,0.8635 l 32.97616,0 z m -30.46369,-11.2254 q 0,-2.08678 -1.09921,-3.52594 -1.0992,-1.43915 -3.53316,-1.51111 -2.59098,0 -3.7687,1.3672 -1.17772,1.3672 -1.25624,3.66985 l 9.65731,0 z"
       path="M760 107Q760 85 751 66T728 32T694 9T652 0H341Q312 0 283 2T224 11Q187 18 152 37T89 83T44 145T27 220Q27 274 50 315T113 384T201 426T302 440Q352 440 399 427T484 386T543 317T566 220V156H258Q269 130 291 119T340 107H760ZM372 263Q372 292 358 312T313 333Q280 333 265 314T249 263H372Z"
       stroke-miterlimit="4"
       inkscape:connector-curvature="0"
       style="fill:#ffffff;fill-opacity:1;fill-rule:evenodd;stroke:none;stroke-width:1;stroke-linecap:butt;stroke-linejoin:miter;stroke-miterlimit:4;stroke-opacity:0" />
    <path
       id="path4513"
       d="m 397.9826,984.23256 q 0,3.23811 -2.51247,5.39684 -2.51247,2.30265 -5.96711,2.30265 l -9.02919,0 -6.67375,15.25505 q -1.72732,3.9577 -5.57454,6.3323 -3.84722,2.3746 -8.5581,2.3746 l -23.16182,0 0,-31.66144 17.43025,0 0,23.96194 2.27693,0 6.67375,-15.25504 q 0.86366,-1.94286 1.80583,-3.52593 0.94218,-1.58308 2.27693,-2.7344 1.33475,-1.15133 3.06207,-1.79895 1.72732,-0.64762 4.31831,-0.64762 l 23.63291,0 0,0 z"
       path="M810 440Q810 395 778 365Q746 333 702 333H587L502 121Q480 66 431 33T322 0H27V440H249V107H278L363 319Q374 346 386 368T415 406T454 431T509 440H810V440Z"
       stroke-miterlimit="4"
       inkscape:connector-curvature="0"
       style="fill:#ffffff;fill-opacity:1;fill-rule:evenodd;stroke:none;stroke-width:1;stroke-linecap:butt;stroke-linejoin:miter;stroke-miterlimit:4;stroke-opacity:0" />
    <path
       id="path4515"
       d="m 426.3264,1008.1945 q 0,1.5831 -0.70663,2.9503 -0.70663,1.3672 -1.80584,2.4466 -1.0992,1.0793 -2.6695,1.655 -1.57029,0.5756 -3.29761,0.6476 l -13.66155,0 q -1.96287,0 -3.69019,-0.6476 -1.72733,-0.6476 -2.98356,-1.8709 -1.25624,-1.2233 -2.04138,-2.8064 -0.78515,-1.583 -0.78515,-3.382 l 0,-22.88258 16.88065,0 0,23.88998 14.76076,0 z m -13.58304,-34.46778 q 0,1.51112 -0.94217,2.51853 -0.94218,1.00741 -2.27693,1.79894 -1.33475,0.79154 -2.98355,1.00741 -1.64881,0.21587 -2.90505,0.35979 -1.33475,0 -2.90504,-0.28783 -1.57029,-0.28783 -2.90504,-1.07937 -1.33475,-0.79153 -2.27693,-1.72699 -0.94217,-0.93545 -0.94217,-2.59048 0,-1.51111 0.86366,-2.59048 0.86366,-1.07936 2.27692,-1.72699 1.41327,-0.64762 2.90505,-1.0074 1.49177,-0.35979 2.98355,-0.35979 1.33475,0 2.90505,0.28783 1.57029,0.28783 2.98355,1.00741 1.41327,0.71958 2.27693,1.79894 0.86366,1.07937 0.94217,2.59048 z"
       path="M431 107Q431 85 422 66T399 32T365 9T323 0H149Q124 0 102 9T64 35T38 74T28 121V439H243V107H431ZM258 586Q258 565 246 551T217 526T179 512T142 507Q125 507 105 511T68 526T39 550T27 586Q27 607 38 622T67 646T104 660T142 665Q159 665 179 661T217 647T246 622T258 586Z"
       stroke-miterlimit="4"
       inkscape:connector-curvature="0"
       style="fill:#ffffff;fill-opacity:1;fill-rule:evenodd;stroke:none;stroke-width:1;stroke-linecap:butt;stroke-linejoin:miter;stroke-miterlimit:4;stroke-opacity:0" />
    <path
       id="path4517"
       d="m 480.50152,1008.1945 q 0,1.5831 -0.70663,2.9503 -0.70663,1.3672 -1.80584,2.4466 -1.09921,1.0793 -2.6695,1.655 -1.57029,0.5756 -3.29762,0.6476 l -24.41806,0 q -2.27692,0 -4.55385,-0.1439 -2.27692,-0.1439 -4.63236,-0.6476 -2.90505,-0.5037 -5.65306,-1.8709 -2.74801,-1.3672 -4.94642,-3.3101 -2.19842,-1.9429 -3.53316,-4.4614 -1.33475,-2.5185 -1.33475,-5.3968 0,-3.88574 1.80583,-6.83601 1.80584,-2.95027 4.94643,-4.96509 3.14058,-2.01482 6.90929,-3.02223 3.7687,-1.00741 7.92998,-1.00741 3.92573,0 7.61592,0.93546 3.69019,0.93545 6.67375,2.95027 2.98356,2.01481 4.63237,4.96508 1.6488,2.95027 1.80583,6.97993 l 0,4.6053 -24.18252,0 q 0.86367,1.8709 2.59099,2.6624 1.72732,0.7916 3.84722,0.8635 l 32.97616,0 z m -30.46369,-11.2254 q 0,-2.08678 -1.09921,-3.52594 -1.0992,-1.43915 -3.53316,-1.51111 -2.59098,0 -3.7687,1.3672 -1.17772,1.3672 -1.25624,3.66985 l 9.65731,0 z"
       path="M760 107Q760 85 751 66T728 32T694 9T652 0H341Q312 0 283 2T224 11Q187 18 152 37T89 83T44 145T27 220Q27 274 50 315T113 384T201 426T302 440Q352 440 399 427T484 386T543 317T566 220V156H258Q269 130 291 119T340 107H760ZM372 263Q372 292 358 312T313 333Q280 333 265 314T249 263H372Z"
       stroke-miterlimit="4"
       inkscape:connector-curvature="0"
       style="fill:#ffffff;fill-opacity:1;fill-rule:evenodd;stroke:none;stroke-width:1;stroke-linecap:butt;stroke-linejoin:miter;stroke-miterlimit:4;stroke-opacity:0" />
    <path
       id="path4519"
       d="m 564.04114,984.23256 q 0,3.16615 -2.43396,5.39684 -2.51247,2.30265 -5.96711,2.30265 l -8.32256,0 0,12.01695 q 0,3.5259 -1.72732,6.0445 -1.72732,2.5185 -4.39682,4.1735 -2.6695,1.655 -6.12415,2.4466 -3.45464,0.7915 -6.75226,0.7915 -4.23979,0 -8.40107,-1.2233 -4.16128,-1.2233 -7.69444,-3.382 -3.53316,2.2307 -8.00849,3.382 -4.47534,1.1514 -8.71513,1.2233 -3.29762,0 -6.51672,-0.7915 -3.2191,-0.7916 -5.8886,-2.5185 -2.6695,-1.727 -4.31831,-4.2456 -1.6488,-2.5185 -1.6488,-5.9005 l 0,-19.71644 16.80214,0 0,18.49314 q 0,1.0794 0.15702,2.3027 0.15703,1.2233 0.62812,2.1587 0.47109,0.9355 1.33475,1.655 0.86366,0.7196 2.51247,0.6477 1.25624,0 2.43396,-0.3598 1.17772,-0.3598 2.35544,-0.7196 l 0,-24.17784 17.43025,0 0,24.03394 q 1.09921,0.4317 2.51247,0.7915 1.41327,0.3598 2.6695,0.4318 1.49178,0 2.35544,-0.6477 0.86366,-0.6476 1.41326,-1.655 0.54961,-1.0074 0.62812,-2.1587 0.0785,-1.1514 0.15703,-2.3027 l 0,-18.49314 33.52577,0 0,0 z"
       path="M1134 440Q1134 396 1103 365Q1071 333 1027 333H921V166Q921 117 899 82T843 24T765 -10T679 -21Q625 -21 572 -4T474 43Q429 12 372 -4T261 -21Q219 -21 178 -10T103 25T48 84T27 166V440H241V183Q241 168 243 151T251 121T268 98T300 89Q316 89 331 94T361 104V440H583V106Q597 100 615 95T649 89Q668 89 679 98T697 121T705 151T707 183V440H1134V440Z"
       stroke-miterlimit="4"
       inkscape:connector-curvature="0"
       style="fill:#ffffff;fill-opacity:1;fill-rule:evenodd;stroke:none;stroke-width:1;stroke-linecap:butt;stroke-linejoin:miter;stroke-miterlimit:4;stroke-opacity:0" />
    <rect
       style="fill:#ff8b00;fill-opacity:1;fill-rule:nonzero;stroke:none;stroke-width:0.025;stroke-miterlimit:4;stroke-dasharray:none;stroke-opacity:0.89325843"
       id="rect5396"
       width="530.71429"
       height="428.57144"
       x="22.85714"
       y="532.36218" />
    <path
       style="fill:#ffffff;fill-opacity:1;stroke:none;stroke-width:3.35678291;stroke-opacity:0.89325843"
       inkscape:connector-curvature="0"
       id="path3342"
       d="m 351.77601,625.67555 c -40.359,-37.33428 -107.80439,-28.50581 -135.56608,17.74549 l -42.29841,68.59813 c -1.41884,2.29783 -1.37125,5.13348 0.12221,7.39261 l 44.5412,67.32303 -66.59467,-37.19004 -94.680612,156.4357 c -13.20707,21.8203 12.78769,45.9992 36.17974,33.6505 l 72.103602,-38.0633 -23.92451,-43.50162 47.29562,25.14082 c 3.2334,1.7213 7.20152,1.7297 10.44375,0.027 l 147.13428,-77.19094 -39.20488,-67.2066 c 0,0 65.82432,35.14715 81.25343,43.25211 37.2892,-29.8502 40.94195,-84.49481 4.37853,-118.31708 l -41.18323,-38.09569 z m 131.97583,1.86583 c -9.13795,-5.22228 -21.08378,-8.4543 -34.42178,-10.6911 l 24.2963,-53.93225 c 3.22141,-7.15425 -4.3637,-14.40265 -12.11841,-11.58091 l -56.92439,20.71426 c -0.45521,-9.09455 -5.51186,-20.03511 -12.51697,-31.76005 -3.80448,-9.65724 -18.54946,-9.4355 -22.01482,0.3354 -3.91751,18.87078 -11.46694,39.03896 -21.30684,60.02472 23.51402,18.57429 47.37899,40.28359 71.74073,66.50813 23.49015,-8.77294 45.30864,-15.73306 63.03415,-18.25824 11.1665,-3.2376 11.32716,-17.91456 0.23236,-21.35996 z" />
  </g>
</svg>
